<svg width="15" height="14" viewBox="0 0 15 14" fill="none" xmlns="http://www.w3.org/2000/svg">
<path d="M1 13V11.6667C1 10.9594 1.28973 10.2811 1.80546 9.78105C2.32118 9.28095 3.02065 9 3.75 9H5.5" stroke="white" stroke-width="1.5" stroke-linecap="round" stroke-linejoin="round"/>
<path d="M6.5 6C7.88071 6 9 4.88071 9 3.5C9 2.11929 7.88071 1 6.5 1C5.11929 1 4 2.11929 4 3.5C4 4.88071 5.11929 6 6.5 6Z" stroke="white" stroke-width="1.5" stroke-linecap="round" stroke-linejoin="round"/>
<path d="M10.5063 14C10.3172 14 10.1545 13.94 10.0181 13.82C9.88165 13.7 9.7993 13.5533 9.77101 13.38L9.67647 12.72C9.58543 12.6867 9.49972 12.6467 9.41933 12.6C9.33894 12.5533 9.26008 12.5033 9.18277 12.45L8.53151 12.71C8.35644 12.7833 8.18137 12.79 8.0063 12.73C7.83123 12.67 7.69468 12.5633 7.59664 12.41L7.10294 11.59C7.0049 11.4367 6.97689 11.2733 7.01891 11.1C7.06092 10.9267 7.15546 10.7833 7.30252 10.67L7.85924 10.27C7.85224 10.2233 7.84874 10.1783 7.84874 10.1348V9.8648C7.84874 9.8216 7.85224 9.77667 7.85924 9.73L7.30252 9.33C7.15546 9.21667 7.06092 9.07333 7.01891 8.9C6.97689 8.72667 7.0049 8.56333 7.10294 8.41L7.59664 7.59C7.69468 7.43667 7.83123 7.33 8.0063 7.27C8.18137 7.21 8.35644 7.21667 8.53151 7.29L9.18277 7.55C9.2598 7.49667 9.34034 7.44667 9.42437 7.4C9.5084 7.35333 9.59244 7.31333 9.67647 7.28L9.77101 6.62C9.79902 6.44667 9.88137 6.3 10.0181 6.18C10.1548 6.06 10.3175 6 10.5063 6H11.4937C11.6828 6 11.8457 6.06 11.9824 6.18C12.119 6.3 12.2013 6.44667 12.229 6.62L12.3235 7.28C12.4146 7.31333 12.5004 7.35333 12.5811 7.4C12.6618 7.44667 12.7405 7.49667 12.8172 7.55L13.4685 7.29C13.6436 7.21667 13.8186 7.21 13.9937 7.27C14.1688 7.33 14.3053 7.43667 14.4034 7.59L14.8971 8.41C14.9951 8.56333 15.0231 8.72667 14.9811 8.9C14.9391 9.07333 14.8445 9.21667 14.6975 9.33L14.1408 9.73C14.1478 9.77667 14.1513 9.82173 14.1513 9.8652V10.1348C14.1513 10.1783 14.1443 10.2233 14.1303 10.27L14.687 10.67C14.834 10.7833 14.9286 10.9267 14.9706 11.1C15.0126 11.2733 14.9846 11.4367 14.8866 11.59L14.3824 12.41C14.2843 12.5633 14.1478 12.67 13.9727 12.73C13.7976 12.79 13.6225 12.7833 13.4475 12.71L12.8172 12.45C12.7402 12.5033 12.6597 12.5533 12.5756 12.6C12.4916 12.6467 12.4076 12.6867 12.3235 12.72L12.229 13.38C12.201 13.5533 12.1188 13.7 11.9824 13.82C11.8459 13.94 11.6831 14 11.4937 14H10.5063ZM10.5798 13.2H11.4097L11.5567 12.14C11.7738 12.0867 11.9752 12.0084 12.1609 11.9052C12.3466 11.802 12.5164 11.6769 12.6702 11.53L13.7101 11.94L14.1197 11.26L13.2164 10.61C13.2514 10.5167 13.2759 10.4184 13.2899 10.3152C13.3039 10.212 13.3109 10.1069 13.3109 10C13.3109 9.89307 13.3039 9.78813 13.2899 9.6852C13.2759 9.58227 13.2514 9.48387 13.2164 9.39L14.1197 8.74L13.7101 8.06L12.6702 8.48C12.5161 8.32667 12.3464 8.1984 12.1609 8.0952C11.9755 7.992 11.7741 7.9136 11.5567 7.86L11.4202 6.8H10.5903L10.4433 7.86C10.2262 7.91333 10.0249 7.99173 9.8395 8.0952C9.65406 8.19867 9.48417 8.3236 9.32983 8.47L8.28992 8.06L7.88025 8.74L8.78361 9.38C8.7486 9.48 8.72409 9.58 8.71008 9.68C8.69608 9.78 8.68908 9.88667 8.68908 10C8.68908 10.1067 8.69608 10.21 8.71008 10.31C8.72409 10.41 8.7486 10.51 8.78361 10.61L7.88025 11.26L8.28992 11.94L9.32983 11.52C9.48389 11.6733 9.65378 11.8017 9.8395 11.9052C10.0252 12.0087 10.2265 12.0869 10.4433 12.14L10.5798 13.2ZM11.021 11.4C11.4272 11.4 11.7738 11.2633 12.0609 10.99C12.348 10.7167 12.4916 10.3867 12.4916 10C12.4916 9.61333 12.348 9.28333 12.0609 9.01C11.7738 8.73667 11.4272 8.6 11.021 8.6C10.6078 8.6 10.2595 8.73667 9.97605 9.01C9.69258 9.28333 9.5507 9.61333 9.55042 10C9.55014 10.3867 9.69202 10.7167 9.97605 10.99C10.2601 11.2633 10.6084 11.4 11.021 11.4Z" fill="#FFBF9B"/>
</svg>
