<svg width="22" height="20" viewBox="0 0 22 20" fill="none" xmlns="http://www.w3.org/2000/svg">
<path d="M9.5 12.666H5.5C4.30653 12.666 3.16193 13.1109 2.31802 13.9027C1.47411 14.6945 1 15.7684 1 16.8882V18.9993" stroke="#FE5F00" stroke-width="1.5" stroke-linecap="round" stroke-linejoin="round"/>
<path d="M9.9082 9C12.1173 9 13.9082 7.20914 13.9082 5C13.9082 2.79086 12.1173 1 9.9082 1C7.69906 1 5.9082 2.79086 5.9082 5C5.9082 7.20914 7.69906 9 9.9082 9Z" stroke="#FE5F00" stroke-width="1.5" stroke-linecap="round" stroke-linejoin="round"/>
<path d="M16.3829 20C16.1465 20 15.9431 19.925 15.7726 19.775C15.6021 19.625 15.4991 19.4417 15.4638 19.225L15.3456 18.4C15.2318 18.3583 15.1246 18.3083 15.0242 18.25C14.9237 18.1917 14.8251 18.1292 14.7285 18.0625L13.9144 18.3875C13.6956 18.4792 13.4767 18.4875 13.2579 18.4125C13.039 18.3375 12.8683 18.2042 12.7458 18.0125L12.1287 16.9875C12.0061 16.7958 11.9711 16.5917 12.0236 16.375C12.0762 16.1583 12.1943 15.9792 12.3782 15.8375L13.0741 15.3375C13.0653 15.2792 13.0609 15.2228 13.0609 15.1685V14.831C13.0609 14.777 13.0653 14.7208 13.0741 14.6625L12.3782 14.1625C12.1943 14.0208 12.0762 13.8417 12.0236 13.625C11.9711 13.4083 12.0061 13.2042 12.1287 13.0125L12.7458 11.9875C12.8683 11.7958 13.039 11.6625 13.2579 11.5875C13.4767 11.5125 13.6956 11.5208 13.9144 11.6125L14.7285 11.9375C14.8248 11.8708 14.9254 11.8083 15.0305 11.75C15.1355 11.6917 15.2405 11.6417 15.3456 11.6L15.4638 10.775C15.4988 10.5583 15.6017 10.375 15.7726 10.225C15.9435 10.075 16.1469 10 16.3829 10H17.6171C17.8535 10 18.0571 10.075 18.2279 10.225C18.3988 10.375 18.5016 10.5583 18.5362 10.775L18.6544 11.6C18.7682 11.6417 18.8755 11.6917 18.9764 11.75C19.0772 11.8083 19.1756 11.8708 19.2715 11.9375L20.0856 11.6125C20.3044 11.5208 20.5233 11.5125 20.7421 11.5875C20.961 11.6625 21.1317 11.7958 21.2542 11.9875L21.8713 13.0125C21.9939 13.2042 22.0289 13.4083 21.9764 13.625C21.9238 13.8417 21.8057 14.0208 21.6218 14.1625L20.9259 14.6625C20.9347 14.7208 20.9391 14.7772 20.9391 14.8315V15.1685C20.9391 15.2228 20.9303 15.2792 20.9128 15.3375L21.6087 15.8375C21.7925 15.9792 21.9107 16.1583 21.9632 16.375C22.0158 16.5917 21.9807 16.7958 21.8582 16.9875L21.2279 18.0125C21.1054 18.2042 20.9347 18.3375 20.7159 18.4125C20.497 18.4875 20.2782 18.4792 20.0593 18.3875L19.2715 18.0625C19.1752 18.1292 19.0746 18.1917 18.9695 18.25C18.8645 18.3083 18.7595 18.3583 18.6544 18.4L18.5362 19.225C18.5012 19.4417 18.3985 19.625 18.2279 19.775C18.0574 19.925 17.8538 20 17.6171 20H16.3829ZM16.4748 19H17.5121L17.6959 17.675C17.9673 17.6083 18.219 17.5105 18.4512 17.3815C18.6833 17.2525 18.8955 17.0962 19.0877 16.9125L20.3876 17.425L20.8997 16.575L19.7705 15.7625C19.8143 15.6458 19.8449 15.523 19.8624 15.394C19.8799 15.265 19.8887 15.1337 19.8887 15C19.8887 14.8663 19.8799 14.7352 19.8624 14.6065C19.8449 14.4778 19.8143 14.3548 19.7705 14.2375L20.8997 13.425L20.3876 12.575L19.0877 13.1C18.8951 12.9083 18.6829 12.748 18.4512 12.619C18.2194 12.49 17.9676 12.392 17.6959 12.325L17.5252 11H16.4879L16.3041 12.325C16.0327 12.3917 15.7812 12.4897 15.5494 12.619C15.3176 12.7483 15.1052 12.9045 14.9123 13.0875L13.6124 12.575L13.1003 13.425L14.2295 14.225C14.1857 14.35 14.1551 14.475 14.1376 14.6C14.1201 14.725 14.1113 14.8583 14.1113 15C14.1113 15.1333 14.1201 15.2625 14.1376 15.3875C14.1551 15.5125 14.1857 15.6375 14.2295 15.7625L13.1003 16.575L13.6124 17.425L14.9123 16.9C15.1049 17.0917 15.3172 17.2522 15.5494 17.3815C15.7815 17.5108 16.0331 17.6087 16.3041 17.675L16.4748 19ZM17.0263 16.75C17.534 16.75 17.9673 16.5792 18.3262 16.2375C18.685 15.8958 18.8645 15.4833 18.8645 15C18.8645 14.5167 18.685 14.1042 18.3262 13.7625C17.9673 13.4208 17.534 13.25 17.0263 13.25C16.5098 13.25 16.0744 13.4208 15.7201 13.7625C15.3657 14.1042 15.1884 14.5167 15.188 15C15.1877 15.4833 15.365 15.8958 15.7201 16.2375C16.0751 16.5792 16.5105 16.75 17.0263 16.75Z" fill="#FFBF9B"/>
</svg>
