<svg xmlns="http://www.w3.org/2000/svg" width="14" height="9" viewBox="0 0 14 9" fill="none">
    <path d="M13.7241 0.196344C13.6464 0.125967 13.5562 0.0726051 13.4586 0.03939C13.3611 0.00617481 13.2583 -0.00622528 13.1561 0.00291675C13.054 0.0120588 12.9546 0.0425593 12.8638 0.0926287C12.773 0.142698 12.6926 0.211329 12.6274 0.294495C10.7922 2.61084 8.1648 5.68295 7.00977 7.02393L1.35949 0.279772C1.29201 0.198949 1.20995 0.133004 1.11806 0.0857524C1.02618 0.0385005 0.926299 0.0108806 0.824198 0.00449105C0.722098 -0.00189855 0.619806 0.0130688 0.523242 0.0485274C0.426679 0.083986 0.337761 0.139232 0.261636 0.211067C0.107113 0.357229 0.0136001 0.561547 0.00136991 0.779727C-0.0108602 0.997906 0.0591782 1.21236 0.196301 1.3766L6.23626 8.58575C6.36459 8.73911 6.50459 8.87284 6.68893 8.94277C6.88727 9.01761 7.10311 9.01884 7.30144 8.94768C7.47939 8.87517 7.63652 8.75558 7.75762 8.60047C8.54514 7.69135 11.6952 4.03525 13.8174 1.35943C13.9501 1.19168 14.0147 0.975785 13.9972 0.758382C13.9797 0.540979 13.8816 0.338304 13.7241 0.196344Z" fill="black"/>
</svg>