<svg width="16" height="16" viewBox="0 0 16 16" fill="none" xmlns="http://www.w3.org/2000/svg">
<path d="M2.40039 3.7998H13.6004L12.4944 13.7538C12.4565 14.0964 12.2935 14.4129 12.0368 14.6428C11.78 14.8727 11.4474 14.9998 11.1028 14.9998H4.89799C4.55334 14.9998 4.22078 14.8727 3.96401 14.6428C3.70724 14.4129 3.5443 14.0964 3.50639 13.7538L2.40039 3.7998Z" stroke="black" stroke-width="1.5" stroke-linecap="round" stroke-linejoin="round"/>
<path d="M4.7413 1.8029C4.85453 1.56278 5.0337 1.3598 5.25791 1.21764C5.48212 1.07548 5.74213 0.999997 6.0076 1H9.992C10.2576 0.999864 10.5178 1.07528 10.7421 1.21745C10.9665 1.35962 11.1457 1.56267 11.259 1.8029L12.1998 3.8H3.7998L4.7413 1.8029Z" stroke="black" stroke-width="1.5" stroke-linecap="round" stroke-linejoin="round"/>
<path d="M1 3.7998H15" stroke="black" stroke-width="1.5" stroke-linecap="round" stroke-linejoin="round"/>
<path d="M6.59961 7.2998V10.7998" stroke="black" stroke-width="1.5" stroke-linecap="round" stroke-linejoin="round"/>
<path d="M9.40039 7.2998V10.7998" stroke="black" stroke-width="1.5" stroke-linecap="round" stroke-linejoin="round"/>
</svg>
