<svg width="16" height="16" viewBox="0 0 16 16" fill="none" xmlns="http://www.w3.org/2000/svg">
<path d="M5 15C5.55228 15 6 14.5523 6 14C6 13.4477 5.55228 13 5 13C4.44772 13 4 13.4477 4 14C4 14.5523 4.44772 15 5 15Z" fill="#FE5F00"/>
<path d="M12.5 15C13.0523 15 13.5 14.5523 13.5 14C13.5 13.4477 13.0523 13 12.5 13C11.9477 13 11.5 13.4477 11.5 14C11.5 14.5523 11.9477 15 12.5 15Z" fill="#FE5F00"/>
<path fill-rule="evenodd" clip-rule="evenodd" d="M14.5212 3.37635C14.6331 3.42631 14.7318 3.49915 14.8102 3.5896C14.8889 3.67988 14.9453 3.78553 14.9754 3.8989C15.0056 4.01228 15.0087 4.13055 14.9845 4.24519L13.9804 8.98203C13.942 9.16092 13.8393 9.32179 13.6896 9.43742C13.5399 9.55305 13.3525 9.61634 13.1591 9.61657H4.73422L3.55273 3.30078H14.1631C14.2869 3.30058 14.4092 3.3264 14.5212 3.37635Z" fill="#FFBF9B"/>
<path d="M1 3H3.30769L4.69231 11H13" stroke="#FE5F00" stroke-width="1.5" stroke-linecap="round" stroke-linejoin="round"/>
</svg>
