<svg width="16" height="13" viewBox="0 0 16 13" fill="none" xmlns="http://www.w3.org/2000/svg">
<g clip-path="url(#clip0_325_56)">
<path d="M8.00067 9.75H3.20067V5.6875H1.60067V12.1875C1.60067 12.6369 1.95817 13 2.40067 13H8.80067C9.24317 13 9.60067 12.6369 9.60067 12.1875V5.6875H8.00067V9.75Z" fill="#FFBF9B"/>
<path d="M12.8007 12.5938C12.8007 12.8172 12.9807 13 13.2007 13H14.0007C14.2207 13 14.4007 12.8172 14.4007 12.5938V5.6875H12.8007V12.5938Z" fill="#FFBF9B"/>
<path d="M15.8657 3.61055L13.7332 0.360547C13.5832 0.13457 13.3332 0 13.0657 0H2.93567C2.66817 0 2.41817 0.13457 2.27067 0.360547L0.138173 3.61055C-0.216827 4.15137 0.163173 4.875 0.803173 4.875H15.2007C15.8382 4.875 16.2182 4.15137 15.8657 3.61055Z" fill="#FE5F00"/>
</g>
<defs>
<clipPath id="clip0_325_56">
<rect width="16" height="13" fill="white"/>
</clipPath>
</defs>
</svg>
